# xmcd
#
# Track frame offsets: 
#        150
#        15794
#        32478
#        46708
#        63947
#        81890
#        98320
#        116523
#        130021
#        145933
#        164088
#        178349
#        204170
#        223533
#        237663
#
# Disc length: 3527 seconds
#
# Revision: 0
# Processed by: cddbd v1.5.2PL0 Copyright (c) Steve Scherf et al.
# Submitted via: ExactAudioCopy v0.99pb3
#
DISCID=be0dc50f
DTITLE=Various Artist - Retro Soul
DYEAR=2008
DGENRE=Retro Soul
TTITLE0=Matya Buena - Real Girl
TTITLE1=Zascha Moktan - Outch!
TTITLE2=Nneka - Heartbeat
TTITLE3=Amy Whitehouse - You Know I'm No Good
TTITLE4=Amy Whitehouse - Back to Black
TTITLE5=Duffy - Mercy
TTITLE6=Zascha Moktan - Like You Do
TTITLE7=Jamie Lidell - Another Day
TTITLE8=Amy Whitehouse - Rehab
TTITLE9=Propellerheads and Shirley Bassey - History Repeating
TTITLE10=Touch And Go - Would You
TTITLE11=Trübi Trio - A Go Go
TTITLE12=Gang Starr - Love Sick
TTITLE13=Gnarls Barkley - Smily Faces
TTITLE14=Blue Boy - Remember Me
EXTD=
EXTT0=
EXTT1=
EXTT2=
EXTT3=
EXTT4=
EXTT5=
EXTT6=
EXTT7=
EXTT8=
EXTT9=
EXTT10=
EXTT11=
EXTT12=
EXTT13=
EXTT14=
PLAYORDER=
